<?xml version="1.0" encoding="UTF-8" standalone="no"?>
<!-- Created with Inkscape (http://www.inkscape.org/) -->

<svg
   width="210mm"
   height="297mm"
   viewBox="0 0 210 297"
   version="1.1"
   id="svg1"
   inkscape:export-filename="bitmap.png"
   inkscape:export-xdpi="96"
   inkscape:export-ydpi="96"
   inkscape:version="1.4.2 (ebf0e940, 2025-05-08)"
   sodipodi:docname="drawing.svg"
   xmlns:inkscape="http://www.inkscape.org/namespaces/inkscape"
   xmlns:sodipodi="http://sodipodi.sourceforge.net/DTD/sodipodi-0.dtd"
   xmlns="http://www.w3.org/2000/svg"
   xmlns:svg="http://www.w3.org/2000/svg">
  <sodipodi:namedview
     id="namedview1"
     pagecolor="#ffffff"
     bordercolor="#000000"
     borderopacity="0.25"
     inkscape:showpageshadow="2"
     inkscape:pageopacity="0.0"
     inkscape:pagecheckerboard="0"
     inkscape:deskcolor="#d1d1d1"
     inkscape:document-units="mm"
     inkscape:zoom="0.61381651"
     inkscape:cx="360.85703"
     inkscape:cy="240.29983"
     inkscape:window-width="1632"
     inkscape:window-height="844"
     inkscape:window-x="0"
     inkscape:window-y="38"
     inkscape:window-maximized="0"
     inkscape:current-layer="layer1" />
  <defs
     id="defs1">
    <clipPath
       clipPathUnits="userSpaceOnUse"
       id="clipPath235">
      <path
         d="M 0,1500 H 1500 V 0 H 0 Z"
         transform="translate(-169.3765,-349.81838)"
         id="path235" />
    </clipPath>
    <clipPath
       clipPathUnits="userSpaceOnUse"
       id="clipPath237">
      <path
         d="M 0,1500 H 1500 V 0 H 0 Z"
         transform="translate(-192.729,-366.57031)"
         id="path237" />
    </clipPath>
    <clipPath
       clipPathUnits="userSpaceOnUse"
       id="clipPath239">
      <path
         d="M 0,1500 H 1500 V 0 H 0 Z"
         transform="translate(-113.19921,-320.95898)"
         id="path239" />
    </clipPath>
    <clipPath
       clipPathUnits="userSpaceOnUse"
       id="clipPath241">
      <path
         d="M 0,1500 H 1500 V 0 H 0 Z"
         transform="translate(-112.9341,-412.64064)"
         id="path241" />
    </clipPath>
    <clipPath
       clipPathUnits="userSpaceOnUse"
       id="clipPath243">
      <path
         d="M 0,1500 H 1500 V 0 H 0 Z"
         transform="translate(-139.36431,-366.54488)"
         id="path243" />
    </clipPath>
  </defs>
  <g
     inkscape:label="Layer 1"
     inkscape:groupmode="layer"
     id="layer1">
    <g
       id="g1"
       transform="matrix(4.073608,0,0,4.073608,-677.99734,-399.09875)">
      <path
         id="path234"
         d="M 0,0 C -0.713,5.405 -2.151,11.06 -4.243,16.752 -2.151,22.445 -0.713,28.1 0,33.505 8.061,28.781 12.473,22.882 12.473,16.752 12.473,10.623 8.061,4.724 0,0 m -12.852,-27.109 c -5.307,-3.065 -12.622,-2.194 -20.744,2.425 4.325,3.32 8.503,7.393 12.388,12.05 5.975,1.034 11.592,2.617 16.628,4.703 -0.061,-9.343 -2.963,-16.113 -8.272,-19.178 m -50.646,0 c -5.308,3.065 -8.211,9.835 -8.272,19.178 5.039,-2.086 10.654,-3.669 16.629,-4.703 3.885,-4.657 8.063,-8.73 12.388,-12.05 -8.123,-4.619 -15.437,-5.49 -20.745,-2.425 m -25.324,43.861 c 0,6.13 4.412,12.029 12.473,16.753 0.713,-5.405 2.151,-11.06 4.242,-16.753 C -74.198,11.06 -75.636,5.405 -76.349,0 -84.41,4.724 -88.822,10.623 -88.822,16.752 m 25.324,43.862 c 2.087,1.204 4.484,1.801 7.118,1.801 4.064,0 8.696,-1.427 13.625,-4.227 -4.324,-3.321 -8.503,-7.392 -12.386,-12.049 -5.975,-1.035 -11.592,-2.618 -16.63,-4.703 0.062,9.343 2.965,16.113 8.273,19.178 m 43.529,1.801 c 2.634,0 5.031,-0.597 7.117,-1.801 5.309,-3.065 8.211,-9.835 8.272,-19.178 -5.038,2.085 -10.653,3.668 -16.629,4.703 -3.884,4.657 -8.062,8.728 -12.385,12.049 4.928,2.802 9.56,4.227 13.625,4.227 m 8.477,-30.257 c -1.561,2.706 -3.227,5.309 -4.974,7.79 4.164,-1.023 8.071,-2.347 11.623,-3.952 -0.387,-3.877 -1.193,-7.923 -2.389,-12.042 -1.276,2.756 -2.697,5.499 -4.26,8.204 m -26.682,23.081 c 3.164,-2.272 6.265,-4.993 9.233,-8.089 -3.023,0.274 -6.109,0.414 -9.233,0.414 -3.125,0 -6.211,-0.14 -9.235,-0.414 2.969,3.096 6.07,5.816 9.235,8.089 M -64.857,32.158 c -1.563,-2.705 -2.985,-5.448 -4.26,-8.204 -1.196,4.119 -2.002,8.165 -2.388,12.042 3.55,1.605 7.456,2.929 11.622,3.952 -1.747,-2.481 -3.413,-5.084 -4.974,-7.79 m 4.974,-38.601 c -4.166,1.023 -8.072,2.347 -11.622,3.952 0.386,3.877 1.192,7.923 2.388,12.042 1.275,-2.756 2.697,-5.499 4.26,-8.204 1.561,-2.706 3.227,-5.308 4.974,-7.79 m 21.709,-15.291 c -3.165,2.273 -6.266,4.993 -9.235,8.088 3.024,-0.273 6.11,-0.413 9.235,-0.413 3.124,0 6.21,0.14 9.233,0.413 -2.968,-3.095 -6.069,-5.815 -9.233,-8.088 M -7.232,9.551 c 1.196,-4.119 2.002,-8.163 2.389,-12.042 -3.552,-1.605 -7.459,-2.929 -11.623,-3.952 1.747,2.482 3.413,5.084 4.974,7.791 1.563,2.706 2.984,5.448 4.26,8.203 m -8.675,-5.655 c -2.446,-4.237 -5.146,-8.198 -8.027,-11.809 -4.568,-0.689 -9.349,-1.046 -14.24,-1.046 -4.891,0 -9.674,0.357 -14.242,1.046 -2.88,3.611 -5.581,7.572 -8.026,11.809 -2.446,4.236 -4.527,8.557 -6.214,12.856 1.688,4.301 3.768,8.621 6.214,12.857 2.445,4.236 5.146,8.198 8.026,11.809 4.568,0.689 9.349,1.046 14.242,1.046 4.891,0 9.672,-0.358 14.24,-1.046 2.881,-3.611 5.581,-7.573 8.027,-11.809 2.446,-4.236 4.527,-8.556 6.213,-12.857 -1.686,-4.3 -3.767,-8.62 -6.213,-12.856 M 0.637,38.988 c -0.053,0.028 -0.106,0.054 -0.158,0.081 0.003,0.06 0.007,0.119 0.008,0.178 0.437,12.357 -3.395,21.514 -10.789,25.782 -7.394,4.269 -17.24,3.009 -27.723,-3.548 -0.051,-0.031 -0.1,-0.063 -0.149,-0.095 -0.051,0.031 -0.101,0.064 -0.151,0.095 -10.484,6.557 -20.329,7.817 -27.723,3.548 -7.392,-4.268 -11.224,-13.425 -10.789,-25.782 0.002,-0.059 0.006,-0.119 0.008,-0.178 -0.052,-0.027 -0.106,-0.053 -0.157,-0.081 -10.921,-5.801 -16.934,-13.699 -16.934,-22.236 0,-8.536 6.013,-16.434 16.934,-22.235 0.052,-0.028 0.105,-0.054 0.157,-0.081 -0.002,-0.06 -0.006,-0.119 -0.008,-0.176 -0.435,-12.36 3.397,-21.516 10.791,-25.784 2.877,-1.663 6.125,-2.487 9.64,-2.487 5.513,0.002 11.678,2.03 18.082,6.034 0.051,0.032 0.099,0.064 0.15,0.096 0.049,-0.031 0.098,-0.064 0.149,-0.096 6.403,-4.004 12.569,-6.034 18.082,-6.034 3.514,0 6.763,0.824 9.641,2.487 7.394,4.268 11.226,13.424 10.789,25.784 -0.001,0.057 -0.005,0.117 -0.008,0.176 0.052,0.027 0.105,0.053 0.158,0.081 10.921,5.801 16.934,13.699 16.934,22.235 0,8.537 -6.015,16.435 -16.934,22.236"
         style="fill:#3cc5eb;fill-opacity:1;fill-rule:nonzero;stroke:none"
         transform="matrix(0.35277776,0,0,-0.35277776,204.84747,141.25301)"
         clip-path="url(#clipPath235)" />
      <path
         id="path236"
         d="m 0,0 c 0,-4.601 -3.73,-8.33 -8.331,-8.33 -4.601,0 -8.332,3.729 -8.332,8.33 0,4.602 3.731,8.332 8.332,8.332 C -3.73,8.332 0,4.602 0,0"
         style="fill:#ffffff;fill-opacity:1;fill-rule:nonzero;stroke:none"
         transform="matrix(0.35277776,0,0,-0.35277776,213.08572,135.34331)"
         clip-path="url(#clipPath237)" />
      <path
         id="path238"
         d="m 0,0 c 0,-4.601 -3.73,-8.33 -8.331,-8.33 -4.601,0 -8.331,3.729 -8.331,8.33 0,4.602 3.73,8.332 8.331,8.332 C -3.73,8.332 0,4.602 0,0"
         style="fill:#ffffff;fill-opacity:1;fill-rule:nonzero;stroke:none"
         transform="matrix(0.35277776,0,0,-0.35277776,185.02937,151.43397)"
         clip-path="url(#clipPath239)" />
      <path
         id="path240"
         d="m 0,0 c 0,-4.602 -3.729,-8.332 -8.331,-8.332 -4.601,0 -8.33,3.73 -8.33,8.332 0,4.601 3.729,8.33 8.33,8.33 C -3.729,8.33 0,4.601 0,0"
         style="fill:#ffffff;fill-opacity:1;fill-rule:nonzero;stroke:none"
         transform="matrix(0.35277776,0,0,-0.35277776,184.93585,119.09072)"
         clip-path="url(#clipPath241)" />
      <path
         id="path242"
         d="m 0,0 c 0,-4.602 -3.73,-8.331 -8.331,-8.331 -4.601,0 -8.331,3.729 -8.331,8.331 0,4.601 3.73,8.331 8.331,8.331 C -3.73,8.331 0,4.601 0,0"
         style="fill:#ffffff;fill-opacity:1;fill-rule:nonzero;stroke:none"
         transform="matrix(0.35277776,0,0,-0.35277776,194.25984,135.35228)"
         clip-path="url(#clipPath243)" />
    </g>
  </g>
</svg>
